<svg width="24" height="24" viewBox="0 0 24 24" fill="none" xmlns="http://www.w3.org/2000/svg">
<path d="M14 3.07C17.83 5.28 19.14 10.17 16.93 14C16.83 14.17 16.73 14.33 16.62 14.5L21.56 19.44C22.15 20.02 22.16 20.97 21.58 21.56C21.03 22.11 20.16 22.16 19.56 21.66L19.45 21.56L14.51 16.62C10.86 19.1 5.88002 18.15 3.40002 14.5C2.55002 13.25 2.08002 11.8 2.02002 10.29V10.01V9.73C2.18002 5.31 5.88002 1.86 10.3 2.02C11.61 2.07 12.88 2.43 14.01 3.09L14 3.07ZM13 9H6.88002C6.33002 9.07 5.94002 9.57 6.01002 10.12C6.06002 10.58 6.43002 10.94 6.88002 10.99H7.00002H13H13.12C13.67 10.92 14.06 10.42 13.99 9.87C13.94 9.41 13.57 9.05 13.12 9H13Z" fill="white"/>
</svg>
